<svg width="537" height="60" viewBox="0 0 537 60" fill="none" xmlns="http://www.w3.org/2000/svg">
<path d="M21.3572 17.8811H30.1192V27.1438H0V0.322183H18.3453V17.0354C18.3453 17.5187 19.7144 17.8811 21.3572 17.8811Z" fill="#313131"/>
<path d="M53.5075 27.1438H35.1622V0.322183H53.5075V27.1438Z" fill="#313131"/>
<path d="M92.5117 13.9344C97.9879 14.8607 101.274 15.7064 101.274 17.5589V21.6265C101.274 25.2108 91.1426 27.6674 78.8211 27.466C67.3211 27.3049 58.5591 24.8483 58.5591 21.4654V14.4982H71.2913C72.7973 14.4982 73.3449 13.8941 72.1128 13.6525L67.0473 12.7665C61.7079 11.8402 58.5591 10.9945 58.5591 9.18219V5.87983C58.5591 1.65118 70.8806 0 79.9164 0C91.6902 0 101.274 2.37609 101.274 5.83955V11.3166C101.274 11.3569 101.274 11.3569 101.274 11.3569H82.9283C82.9283 11.3569 82.9283 11.3569 82.9283 11.3166V9.66547C82.9283 9.14192 81.6961 8.77946 79.9164 8.77946C78.2735 8.77946 76.9044 9.14192 76.9044 9.62519V10.4709C76.9044 10.9542 77.7259 11.3569 79.0949 11.5986C79.0949 11.5986 85.9402 12.8067 92.5117 13.9344ZM82.9283 17.7603V15.948C82.9283 15.4647 81.5592 15.062 79.9164 15.062C78.2735 15.062 76.9044 15.4647 76.9044 15.948V17.7603C76.9044 18.2436 78.2735 18.6463 79.9164 18.6463C81.5592 18.6463 82.9283 18.2436 82.9283 17.7603Z" fill="#313131"/>
<path d="M152.015 27.1841H132.164V17.1159C132.164 16.6327 130.795 16.2702 129.152 16.2702C127.509 16.2702 126.14 16.6327 126.14 17.1159L126.171 27.0447H106.066L109.164 0.322183H149.003L152.015 27.1841ZM129.152 12.3637C130.795 12.3637 132.164 11.961 132.164 11.4777V9.70574C132.164 9.14192 130.521 8.73919 128.604 8.81974C127.098 8.90028 126.14 9.30301 126.14 9.74601V11.4777C126.14 11.961 127.509 12.3637 129.152 12.3637Z" fill="#313131"/>
<path d="M182.969 0.322183H202.82L199.808 27.1438H159.969L157.094 0.322183H176.945V17.8006C176.945 18.2838 178.314 18.6866 179.957 18.6866C181.326 18.6866 182.969 18.3241 182.969 17.7603V0.322183Z" fill="#313131"/>
<path d="M229.94 17.8811H246.369V27.1841H207.898V0.322183H244.863V9.58492H229.94C227.886 9.58492 226.244 10.0682 226.244 10.6723C226.244 11.3166 227.886 11.7999 229.94 11.7999H241.988V15.7064H229.94C227.886 15.7064 226.244 16.1897 226.244 16.7937C226.244 17.3978 227.886 17.8811 229.94 17.8811Z" fill="#313131"/>
<path d="M251.483 0.322183H293.376V9.58492H284.478C282.835 9.58492 281.603 9.98765 281.603 10.4306V27.1438H263.12V10.4306C263.12 9.98765 261.888 9.58492 260.245 9.58492H251.483V0.322183Z" fill="#313131"/>
<path d="M344.137 27.1841H324.286V17.1159C324.286 16.6327 322.917 16.2702 321.274 16.2702C319.631 16.2702 318.262 16.6327 318.262 17.1159V27.1841H298.411L301.286 0.322183H341.125L344.137 27.1841ZM321.274 12.3637C322.917 12.3637 324.286 11.961 324.286 11.4777V9.70574C324.286 9.14192 322.643 8.73919 320.726 8.81974C319.22 8.90028 318.262 9.30301 318.262 9.74601V11.4777C318.262 11.961 319.631 12.3637 321.274 12.3637Z" fill="#313131"/>
<path d="M86.9278 42.0699C85.8209 42.0699 84.8522 42.3524 84.8522 42.6753C84.8522 42.9981 85.6825 43.2403 86.6511 43.2807H95.0919L96.8908 59.6663H77.5184L75.5811 46.2672C75.4428 45.904 74.4741 45.6215 73.2288 45.6215C71.9834 45.6215 70.8764 45.9443 70.8764 46.3076V59.6663H52.3342V32.7874H70.8764V40.617C70.8764 40.9802 71.845 41.2627 73.0904 41.2627C74.3358 41.2627 75.3044 41.0206 75.4428 40.6573L77.5184 32.7874H96.8908V42.0699H86.9278Z" fill="#313131"/>
<path d="M123.574 32.5225C135.484 32.5225 144.931 35.3818 144.931 38.8856V53.6254C144.931 56.7667 136.717 59.9885 123.574 59.9885C111.663 59.9885 102.216 57.1694 102.216 53.6254V38.8856C102.216 35.6637 110.705 32.5225 123.574 32.5225ZM126.586 50.323V46.2756V42.2282C126.586 41.7449 125.217 41.3422 123.574 41.3422C121.931 41.3422 120.562 41.7449 120.562 42.2282V50.323C120.562 50.8063 121.931 51.209 123.574 51.209C125.217 51.209 126.586 50.8063 126.586 50.323Z" fill="#313131"/>
<path d="M184.446 32.8446H202.792V59.6663H174.452L171.988 44.3224C171.988 43.8391 171.166 43.4364 169.524 43.4364C167.881 43.4364 167.47 43.8391 167.47 44.3224L168.018 59.6663H149.946V32.8446H177.738L180.613 48.1886C180.613 48.6718 181.297 49.0746 182.94 49.0746C184.583 49.0746 185.131 48.6718 185.131 48.1886L184.446 32.8446Z" fill="#313131"/>
<path d="M229.879 50.4036H246.307V59.7066H207.837V32.8446H244.801V42.1074H229.879C227.825 42.1074 226.182 42.5906 226.182 43.1947C226.182 43.8391 227.825 44.3224 229.879 44.3224H241.926V48.2288H229.879C227.825 48.2288 226.182 48.7121 226.182 49.3162C226.182 49.9203 227.825 50.4036 229.879 50.4036Z" fill="#313131"/>
<path d="M277.297 32.8446H297.148L294.136 59.6663H254.297L251.422 32.8446H271.273V50.323C271.273 50.8063 272.642 51.209 274.285 51.209C275.654 51.209 277.297 50.8466 277.297 50.2827V32.8446Z" fill="#313131"/>
<path d="M302.227 32.8446H344.12V42.1074H335.221C333.578 42.1074 332.346 42.5101 332.346 42.9531V59.6663H313.864V42.9531C313.864 42.5101 312.631 42.1074 310.989 42.1074H302.227V32.8446Z" fill="#313131"/>
<path d="M383.107 46.4568C388.583 47.3831 391.869 48.2288 391.869 50.0814V54.1489C391.869 57.7332 381.738 60.1898 369.416 59.9885C357.916 59.8274 349.154 57.3708 349.154 53.9878V47.0206H361.886C363.392 47.0206 363.94 46.4166 362.708 46.1749L357.642 45.2889C352.303 44.3626 349.154 43.5169 349.154 41.7046V38.4023C349.154 34.1736 361.476 32.5225 370.511 32.5225C382.285 32.5225 391.869 34.8985 391.869 38.362V43.8391C391.869 43.8794 391.869 43.8794 391.869 43.8794H373.523C373.523 43.8794 373.523 43.8794 373.523 43.8391V42.1879C373.523 41.6644 372.291 41.3019 370.511 41.3019C368.868 41.3019 367.499 41.6644 367.499 42.1476V42.9934C367.499 43.4766 368.321 43.8794 369.69 44.121C369.69 44.121 376.535 45.3292 383.107 46.4568ZM373.523 50.2827V48.4705C373.523 47.9872 372.154 47.5845 370.511 47.5845C368.868 47.5845 367.499 47.9872 367.499 48.4705V50.2827C367.499 50.766 368.868 51.1687 370.511 51.1687C372.154 51.1687 373.523 50.766 373.523 50.2827Z" fill="#313131"/>
<path d="M418.926 50.4036H435.354V59.7066H396.884V32.8446H433.848V42.1074H418.926C416.872 42.1074 415.229 42.5906 415.229 43.1947C415.229 43.8391 416.872 44.3224 418.926 44.3224H430.973V48.2288H418.926C416.872 48.2288 415.229 48.7121 415.229 49.3162C415.229 49.9203 416.872 50.4036 418.926 50.4036Z" fill="#313131"/>
<path d="M466.344 32.8446H486.195L483.183 59.6663H443.344L440.469 32.8446H460.32V50.323C460.32 50.8063 461.689 51.209 463.332 51.209C464.701 51.209 466.344 50.8466 466.344 50.2827V32.8446Z" fill="#313131"/>
<path d="M537 59.7066H517.149V49.6384C517.149 49.1551 515.78 48.7926 514.137 48.7926C512.494 48.7926 511.125 49.1551 511.125 49.6384V59.7066H491.274L494.149 32.8446H533.988L537 59.7066ZM514.137 44.8862C515.78 44.8862 517.149 44.4835 517.149 44.0002V42.2282C517.149 41.6644 515.506 41.2616 513.589 41.3422C512.083 41.4227 511.125 41.8255 511.125 42.2685V44.0002C511.125 44.4835 512.494 44.8862 514.137 44.8862Z" fill="#313131"/>
</svg>
